#!OML:ASF H:\Terrain\Patient Classification 1\Walking\liu\liu.ASF
:FULLY-SPECIFIED
:DEGREES
67
root 9.06315739467 16.1555123192 -3.07133796256 10.2996653903 -4.11760651409 -5.04161875779
lowerback -7.79990560564 2.11855106164 1.6062847204
upperback -2.19286119197 2.62432946652 2.67757929678
thorax 2.04743179776 1.31357396279 2.10778526707
lowerneck -19.2655197054 -6.4499376348 -13.6914574882
upperneck 16.8651912574 -8.18434630345 14.8307016261
head 9.74323214484 -3.17544084349 6.3264208823
rclavicle 3.65018910948e-15 -7.94999703903e-16
rhumerus -45.0000237857 9.93648752337 -88.0362831104
rradius 46.493710484
rwrist -24.4389256156
rhand -31.5831397331 -24.1865798603
rfingers 7.12502
rthumb -4.84621825075 -54.11119355
lclavicle 3.65018910948e-15 -7.94999703903e-16
lhumerus -48.5988677208 -5.66581607437 89.7854756191
lradius 19.7880185118
lwrist -4.44928104747
lhand -7.81728066367 -24.0849262408
lfingers 7.12502
lthumb 18.0846302242 5.09417226745
rfemur 24.1648420682 4.91774288532 26.2035012148
rtibia -0.496238855856
rfoot 5.09299190447 3.93975467154
rtoes -17.3970087079
lfemur -49.2446578469 9.60457441848 -19.7942947166
ltibia 42.4536552038
lfoot -2.99073955218 5.06985237467
ltoes -1.86042839813
68
root 9.2063033901 16.2330959268 -2.48301029579 10.1794801294 -4.69253841054 -3.69603364114
lowerback -7.46645691208 2.08206609634 0.871994294004
upperback -2.50575798964 2.6612834831 2.13611324843
thorax 1.5318934753 1.33276656557 1.94011650244
lowerneck -18.2948646308 -6.00784706465 -13.9879531289
upperneck 16.3518315635 -7.67445565874 15.4230402978
head 9.34619802108 -2.94238641009 6.66774239924
rclavicle 2.52919721397e-14 -3.53289250138e-15
rhumerus -45.2054868474 7.564229451 -86.9528494589
rradius 42.7921680291
rwrist -22.030759677
rhand -28.9240646391 -23.0728881855
rfingers 7.12502
rthumb -2.27834920428 -53.0405044345
lclavicle 2.52919721397e-14 -3.53289250138e-15
lhumerus -46.8964185709 -4.76023192263 88.236423254
lradius 19.5355773267
lwrist -6.12869608526
lhand -6.64374993832 -24.1237997178
lfingers 7.12502
lthumb 19.2133646286 4.94692644536
rfemur 16.3537841509 3.66456011634 23.6199618367
rtibia 16.9028325816
rfoot 5.58592516228 4.48400452616
rtoes -15.1798338401
lfemur -46.6993691089 9.16227513496 -21.319981958
ltibia 42.683510687
lfoot -5.79621109174 5.14807668966
ltoes 0.277835338048
69
root 9.34784210874 16.3530795987 -1.92758156695 9.7928279236 -5.799566612 -1.87636242153
lowerback -6.50736573957 2.06460411749 -0.59999876415
upperback -2.99454026387 2.76350575649 1.74168511923
thorax 0.444145432526 1.39848641078 2.3112074935
lowerneck -18.5310259273 -5.88327807329 -13.9413850686
upperneck 17.4062444846 -7.41824126292 14.6200231857
head 9.66793971857 -2.88524085543 6.435258035
rclavicle -1.6031405819e-14 -1.94698932368e-15
rhumerus -46.6563845701 8.19228028001 -86.8337011096
rradius 40.6588818509
rwrist -22.0323960976
rhand -29.3128491365 -22.5440729061
rfingers 7.12502
rthumb -2.65386800586 -52.5066118135
lclavicle -1.6031405819e-14 -1.94698932368e-15
lhumerus -45.7057147571 -4.6673730673 88.0905783984
lradius 19.8690674996
lwrist -7.53222485751
lhand -7.2192365296 -22.6002037918
lfingers 7.12502
lthumb 18.6600249179 6.52554840316
rfemur 10.4612787356 1.49113451997 19.9288061022
rtibia 30.2073854351
rfoot 9.28697962331 4.89257794121
rtoes -15.433838509
lfemur -43.5547769715 9.51945623651 -23.8077163735
ltibia 42.1465694972
lfoot -7.93728226806 5.29530167776
ltoes -1.02115298983
70
root 9.480280246 16.4727258664 -1.41506181908 9.25543380753 -6.9152061301 -0.847354851527
lowerback -6.07352703625 2.08597089218 -1.13282613663
upperback -2.57236071695 2.82128327476 1.46015916022
thorax 0.623954675057 1.42538669011 2.31609846781
lowerneck -19.6478168057 -5.70964146618 -13.4190337489
upperneck 17.8815352658 -7.08581899423 13.9873566507
head 9.93648205519 -2.71640207679 6.17253937576
rclavicle -7.27209743834e-15 3.76688954404e-15
rhumerus -46.9042205424 9.73160966791 -88.0538556033
rradius 39.8148580508
rwrist -26.279314159
rhand -31.6896364736 -24.0535270966
rfingers 7.12502
rthumb -4.94906390133 -53.9747740345
lclavicle -7.27209743834e-15 3.76688954404e-15
lhumerus -43.0830188652 -6.58523653857 89.0517714638
lradius 20.3731509748
lwrist -4.85633275852
lhand -9.46018268685 -22.9429154206
lfingers 7.12502
lthumb 16.5033854225 6.37528309291
rfemur 4.60216708176 0.104792012885 17.865064688
rtibia 41.6413028189
rfoot 12.1113090069 2.87346202882
rtoes -16.8462217245
lfemur -39.7893907314 9.10740679043 -24.7721132029
ltibia 40.4066063802
lfoot -9.68258229754 6.15356222881
ltoes 3.57843169158
